<?xml version="1.0" encoding="UTF-8" standalone="no"?>
<!-- Created with Inkscape (http://www.inkscape.org/) -->

<svg
   width="25.929167mm"
   height="8.2020836mm"
   viewBox="0 0 25.929167 8.2020837"
   version="1.1"
   id="svg284"
   inkscape:version="1.3 (1:1.3+202307231459+0e150ed6c4)"
   sodipodi:docname="logo.svg"
   xmlns:inkscape="http://www.inkscape.org/namespaces/inkscape"
   xmlns:sodipodi="http://sodipodi.sourceforge.net/DTD/sodipodi-0.dtd"
   xmlns="http://www.w3.org/2000/svg"
   xmlns:svg="http://www.w3.org/2000/svg">
  <sodipodi:namedview
     id="namedview286"
     pagecolor="#ffffff"
     bordercolor="#000000"
     borderopacity="0.25"
     inkscape:showpageshadow="2"
     inkscape:pageopacity="0.0"
     inkscape:pagecheckerboard="0"
     inkscape:deskcolor="#d1d1d1"
     inkscape:document-units="mm"
     showgrid="false"
     inkscape:zoom="8.808916"
     inkscape:cx="48.814179"
     inkscape:cy="27.86949"
     inkscape:window-width="1920"
     inkscape:window-height="1052"
     inkscape:window-x="0"
     inkscape:window-y="28"
     inkscape:window-maximized="1"
     inkscape:current-layer="layer1" />
  <defs
     id="defs281" />
  <g
     inkscape:label="Layer 1"
     inkscape:groupmode="layer"
     id="layer1"
     transform="translate(-46.564453,-141.07751)">
    <g
       id="g7419"
       inkscape:export-filename="web-logo.png"
       inkscape:export-xdpi="96"
       inkscape:export-ydpi="96"
       transform="matrix(0.41308532,0,0,0.41308532,27.765291,82.800467)">
      <path
         id="path12"
         style="color:#000000;clip-rule:evenodd;fill:#009bff;fill-rule:evenodd;stroke-linejoin:round;stroke-miterlimit:2;-inkscape-stroke:none"
         d="m 57.234651,141.0775 c -5.481383,1.5e-4 -9.927832,4.44644 -9.927832,9.92783 0,5.48145 4.446446,9.92783 9.927832,9.92783 5.481453,0 9.927832,-4.44638 9.927832,-9.92783 0,-5.48139 -4.446446,-9.92783 -9.927832,-9.92783 z m 0.05379,2.42816 c 4.147191,0 7.505922,3.35881 7.505922,7.50592 0,4.14727 -3.358731,7.50593 -7.505922,7.50593 -4.147261,0 -7.507172,-3.35866 -7.507172,-7.50593 0,-4.14711 3.359911,-7.50592 7.507172,-7.50592 z m -4.089476,3.02739 c -0.600337,0 -1.08961,0.48929 -1.08961,1.08961 0,0.60037 0.489296,1.08961 1.08961,1.08961 0.600373,0 1.08961,-0.48924 1.08961,-1.08961 0,-0.60032 -0.489214,-1.08961 -1.08961,-1.08961 z m 6.681521,0.0113 -4.212073,0.0163 a 0.13230523,0.13230523 0 0 0 -0.0088,0 c -0.101167,0.006 -0.195622,0.0259 -0.282723,0.0563 -0.42136,0.14063 -0.724321,0.53877 -0.724321,1.00579 0,0.48451 0.326946,0.89392 0.77311,1.01955 0.08195,0.0277 0.166743,0.045 0.251448,0.0488 a 0.13230523,0.13230523 0 0 0 0.0063,0 h 4.089476 c 0.08203,0 0.240592,0.048 0.361535,0.14887 0.120942,0.10083 0.211868,0.24448 0.212668,0.46412 6.22e-4,0.18645 -0.07485,0.32927 -0.198907,0.43284 -0.124055,0.10357 -0.298237,0.16388 -0.48163,0.16388 h -5.12154 a 0.13230523,0.13230523 0 0 0 -0.0038,0 c -1.302594,0.0216 -2.428672,1.13303 -2.429417,2.40189 v 2.06038 c 0,0.54055 0.439294,0.99516 1.005794,1.02331 0.56601,0.0281 1.142151,-0.38188 1.142151,-1.04833 v -1.74763 c 0.0055,-0.12375 0.0562,-0.2614 0.132604,-0.36154 0.0764,-0.10015 0.171533,-0.15936 0.260206,-0.16638 l 1.332301,0.015 c 0.516829,0.0532 1.33565,0.55489 2.210494,1.19595 0.874923,0.64111 1.817423,1.41087 2.6621,1.98031 0.166285,0.12825 0.402565,0.166 0.644258,0.13886 0.243094,-0.0273 0.497889,-0.12719 0.666776,-0.32651 0.161994,-0.19185 0.252695,-0.45148 0.265209,-0.70931 0.01254,-0.25845 -0.05478,-0.52522 -0.246444,-0.70305 a 0.13230523,0.13230523 0 0 0 -0.01126,-0.01 l -2.334342,-1.69884 c 0.687904,-0.0982 1.342908,-0.29184 1.795167,-0.70681 0.516792,-0.47418 0.820574,-1.14826 0.790623,-1.96905 -0.05984,-1.64173 -1.38769,-2.72879 -2.547009,-2.72465 z" />
      <g
         id="text894"
         style="font-weight:800;font-size:10.0128px;line-height:1;font-family:Avenir;-inkscape-font-specification:'Avenir, Ultra-Bold';fill:#009bff;stroke-width:0.204936"
         aria-label="RAVAA&#10;STUDIO">
        <path
           style="fill:#333333"
           d="m 69.733678,142.48726 h 2.743507 q 0.540691,0 1.021306,0.11014 0.490627,0.10013 0.851088,0.35045 0.370473,0.24031 0.580742,0.66085 0.220282,0.41052 0.220282,1.03131 0,0.75096 -0.390499,1.28164 -0.3905,0.52067 -1.14146,0.66085 l 1.802304,2.99382 H 73.548555 L 72.06666,146.7427 h -0.770985 v 2.83362 h -1.561997 z m 1.561997,2.93375 h 0.921177 q 0.210269,0 0.440564,-0.01 0.240307,-0.02 0.43055,-0.0901 0.190243,-0.0801 0.310397,-0.2403 0.130166,-0.16021 0.130166,-0.45058 0,-0.27034 -0.110141,-0.43055 -0.11014,-0.1602 -0.280358,-0.24031 -0.170218,-0.0901 -0.390499,-0.12015 -0.220282,-0.03 -0.430551,-0.03 h -1.021305 z m 7.259268,-2.93375 h 1.291651 l 3.083943,7.08906 h -1.762253 l -0.610781,-1.50192 h -2.75352 l -0.590755,1.50192 h -1.722202 z m 0.600768,2.06264 -0.861101,2.20281 h 1.732215 z m 3.164034,-2.06264 h 1.782279 l 1.75224,4.64594 h 0.02003 l 1.782279,-4.64594 h 1.672138 l -2.923738,7.08906 h -1.2516 z m 9.532169,0 h 1.291651 l 3.083943,7.08906 h -1.762253 l -0.610781,-1.50192 h -2.75352 l -0.590755,1.50192 h -1.722202 z m 0.600768,2.06264 -0.861101,2.20281 h 1.732215 z m 6.818709,-2.06264 h 1.291649 l 3.08395,7.08906 h -1.76226 l -0.61078,-1.50192 h -2.753519 l -0.590755,1.50192 h -1.722201 z m 0.600768,2.06264 -0.8611,2.20281 h 1.732211 z"
           id="path9" />
        <path
           d="m 73.238158,154.23228 q -0.190243,-0.24031 -0.520666,-0.35045 -0.320409,-0.12016 -0.61078,-0.12016 -0.170218,0 -0.350448,0.0401 -0.180231,0.0401 -0.340436,0.13016 -0.160204,0.0801 -0.260332,0.22028 -0.100128,0.14018 -0.100128,0.34044 0,0.32041 0.240307,0.49063 0.240307,0.17021 0.600768,0.29037 0.370473,0.12015 0.791011,0.2403 0.420538,0.12016 0.780998,0.34044 0.370474,0.22028 0.610781,0.59076 0.240307,0.37047 0.240307,0.99126 0,0.59076 -0.220281,1.03132 -0.220282,0.44056 -0.600768,0.73094 -0.370474,0.29037 -0.871114,0.43055 -0.490627,0.14018 -1.041331,0.14018 -0.690883,0 -1.281638,-0.21027 -0.590756,-0.21027 -1.101408,-0.68087 l 1.11142,-1.22157 q 0.240308,0.32041 0.600768,0.50064 0.370474,0.17022 0.760973,0.17022 0.190243,0 0.380487,-0.04 0.200256,-0.0501 0.350448,-0.14018 0.160204,-0.0901 0.25032,-0.23029 0.100128,-0.14018 0.100128,-0.33043 0,-0.3204 -0.25032,-0.50064 -0.240308,-0.19024 -0.610781,-0.3204 -0.370474,-0.13017 -0.801024,-0.26034 -0.430551,-0.13016 -0.801024,-0.35045 -0.370474,-0.22028 -0.620794,-0.58074 -0.240307,-0.36046 -0.240307,-0.95121 0,-0.57073 0.220282,-1.00128 0.230294,-0.43055 0.600768,-0.72093 0.380486,-0.29037 0.871113,-0.43055 0.490627,-0.15019 1.011293,-0.15019 0.600768,0 1.161485,0.17022 0.560717,0.17022 1.011293,0.57073 z m 3.614615,-0.35045 h -2.022586 v -1.38177 h 5.607168 v 1.38177 H 78.41477 v 5.70729 h -1.561997 z m 10.353229,2.9738 q 0,0.63081 -0.190243,1.16149 -0.190243,0.53067 -0.57073,0.92117 -0.370473,0.3905 -0.93119,0.61078 -0.560717,0.22029 -1.291651,0.22029 -0.740948,0 -1.301664,-0.22029 -0.560717,-0.22028 -0.941204,-0.61078 -0.370473,-0.3905 -0.560717,-0.92117 -0.190243,-0.53068 -0.190243,-1.16149 v -4.35557 h 1.561997 v 4.29549 q 0,0.33043 0.100128,0.61078 0.110141,0.28036 0.300384,0.49063 0.190243,0.20026 0.450576,0.32041 0.270346,0.11014 0.580743,0.11014 0.310396,0 0.570729,-0.11014 0.260333,-0.12015 0.450576,-0.32041 0.190243,-0.21027 0.290371,-0.49063 0.110141,-0.28035 0.110141,-0.61078 v -4.29549 h 1.561997 z m 1.441836,-4.35557 h 2.342995 q 0.851088,0 1.612061,0.19025 0.770985,0.19024 1.341715,0.62079 0.57073,0.42054 0.901152,1.10141 0.340435,0.68087 0.340435,1.65211 0,0.8611 -0.330422,1.52194 -0.32041,0.65084 -0.871114,1.10141 -0.550704,0.44057 -1.271625,0.67086 -0.720922,0.23029 -1.511933,0.23029 h -2.553264 z m 1.561997,5.64722 h 0.811036 q 0.540692,0 1.00128,-0.11014 0.470602,-0.11014 0.811037,-0.36046 0.340435,-0.26033 0.530679,-0.67086 0.200256,-0.42054 0.200256,-1.0213 0,-0.52067 -0.200256,-0.90116 -0.190244,-0.39049 -0.520666,-0.64081 -0.330422,-0.25032 -0.780998,-0.37048 -0.440564,-0.13016 -0.931191,-0.13016 h -0.921177 z m 6.01768,-5.64722 h 1.561997 v 7.08906 h -1.561997 z m 2.603324,3.54453 q 0,-0.85108 0.280359,-1.54197 0.290371,-0.69088 0.801024,-1.1715 0.510648,-0.49062 1.211548,-0.75096 0.7009,-0.26033 1.53196,-0.26033 0.83106,0 1.53196,0.26033 0.70089,0.26034 1.21155,0.75096 0.51065,0.48062 0.79101,1.1715 0.29037,0.69089 0.29037,1.54197 0,0.85109 -0.29037,1.54197 -0.28036,0.69089 -0.79101,1.18152 -0.51066,0.48061 -1.21155,0.74094 -0.7009,0.26034 -1.53196,0.26034 -0.83106,0 -1.53196,-0.26034 -0.7009,-0.26033 -1.211548,-0.74094 -0.510653,-0.49063 -0.801024,-1.18152 -0.280359,-0.69088 -0.280359,-1.54197 z m 1.622071,0 q 0,0.50064 0.15019,0.92118 0.16021,0.41053 0.45058,0.72092 0.29037,0.30039 0.69088,0.4706 0.41053,0.17022 0.91117,0.17022 0.50064,0 0.90115,-0.17022 0.41053,-0.17021 0.7009,-0.4706 0.29037,-0.31039 0.44056,-0.72092 0.16021,-0.42054 0.16021,-0.92118 0,-0.49062 -0.16021,-0.91116 -0.15019,-0.42054 -0.44056,-0.72092 -0.29037,-0.3104 -0.7009,-0.48062 -0.40051,-0.17022 -0.90115,-0.17022 -0.50064,0 -0.91117,0.17022 -0.40051,0.17022 -0.69088,0.48062 -0.29037,0.30038 -0.45058,0.72092 -0.15019,0.42054 -0.15019,0.91116 z"
           id="path8" />
      </g>
    </g>
  </g>
</svg>
